<svg xmlns="http://www.w3.org/2000/svg" viewBox="0 0 240 240" width="240" height="240">
  <!-- PLACEHOLDER LOGO — replace this file with the real Department of Community Medicine
       emblem (keep the filename "logo-community-medicine.svg", or swap to .png and update
       the <img> reference in index.html) -->
  <circle cx="120" cy="120" r="114" fill="#1F3D2B"/>
  <circle cx="120" cy="120" r="102" fill="none" stroke="#C9A85C" stroke-width="2"/>
  <circle cx="120" cy="120" r="94" fill="none" stroke="#C9A85C" stroke-width="1"/>
  <path id="topArc" d="M 30 120 A 90 90 0 0 1 210 120" fill="none"/>
  <text font-family="Georgia, 'Times New Roman', serif" font-size="12.5" fill="#F7F3E8" letter-spacing="2.5">
    <textPath href="#topArc" startOffset="50%" text-anchor="middle">DEPT. OF COMMUNITY MEDICINE</textPath>
  </text>
  <path id="botArc" d="M 40 150 A 90 90 0 0 0 200 150" fill="none"/>
  <text font-family="Georgia, 'Times New Roman', serif" font-size="10.5" fill="#C9A85C" letter-spacing="2">
    <textPath href="#botArc" startOffset="50%" text-anchor="middle">GOVT. OMANDURAR MEDICAL COLLEGE</textPath>
  </text>
  <!-- staff of Asclepius, simplified -->
  <line x1="120" y1="80" x2="120" y2="150" stroke="#F7F3E8" stroke-width="3"/>
  <path d="M120 90 C 106 98, 106 112, 120 118 C 134 112, 134 98, 120 90 Z" fill="none" stroke="#F7F3E8" stroke-width="2.5"/>
  <path d="M120 96 C 132 104, 132 116, 120 124 C 108 116, 108 104, 120 96 Z" fill="none" stroke="#F7F3E8" stroke-width="2.5"/>
  <circle cx="120" cy="150" r="5" fill="#F7F3E8"/>
</svg>
